<?xml version="1.0" encoding="UTF-8" standalone="no"?>
<!DOCTYPE svg PUBLIC "-//W3C//DTD SVG 1.1//EN"
 "http://www.w3.org/Graphics/SVG/1.1/DTD/svg11.dtd">
<!-- Generated by graphviz version 2.47.0 (20210316.0004)
 -->
<!-- Title: dependencies Pages: 1 -->
<svg width="776pt" height="284pt"
 viewBox="0.00 0.00 776.00 284.00" xmlns="http://www.w3.org/2000/svg" xmlns:xlink="http://www.w3.org/1999/xlink">
<g id="graph0" class="graph" transform="scale(1 1) rotate(0) translate(4 280)">
<title>dependencies</title>
<polygon fill="white" stroke="transparent" points="-4,4 -4,-280 772,-280 772,4 -4,4"/>
<text text-anchor="start" x="363.01" y="-42.4" font-family="Times-12" font-weight="bold" font-size="14.00">Legend</text>
<polygon fill="#ffffb3" stroke="transparent" points="150,-10 150,-30 170,-30 170,-10 150,-10"/>
<text text-anchor="start" x="173.63" y="-15.4" font-family="Times-12" font-size="14.00"> &#160;Declarations</text>
<polygon fill="#8dd3c7" stroke="transparent" points="263,-10 263,-30 283,-30 283,-10 263,-10"/>
<text text-anchor="start" x="286.73" y="-15.4" font-family="Times-12" font-size="14.00"> &#160;Module</text>
<polygon fill="#80b1d3" stroke="transparent" points="349,-10 349,-30 369,-30 369,-10 349,-10"/>
<text text-anchor="start" x="372.78" y="-15.4" font-family="Times-12" font-size="14.00"> &#160;Bootstrap</text>
<polygon fill="#fdb462" stroke="transparent" points="446,-10 446,-30 466,-30 466,-10 446,-10"/>
<text text-anchor="start" x="469.67" y="-15.4" font-family="Times-12" font-size="14.00"> &#160;Providers</text>
<polygon fill="#fb8072" stroke="transparent" points="542,-10 542,-30 562,-30 562,-10 542,-10"/>
<text text-anchor="start" x="565.73" y="-15.4" font-family="Times-12" font-size="14.00"> &#160;Exports</text>
<g id="clust1" class="cluster">
<title>cluster_AppModule</title>
<polygon fill="none" stroke="black" stroke-dasharray="1,5" points="8,-70 8,-268 760,-268 760,-70 8,-70"/>
</g>
<g id="clust8" class="cluster">
<title>cluster_AppModule_bootstrap</title>
<polygon fill="none" stroke="black" points="335,-208 335,-260 459,-260 459,-208 335,-208"/>
</g>
<g id="clust6" class="cluster">
<title>cluster_AppModule_imports</title>
<polygon fill="none" stroke="black" points="466,-78 466,-130 752,-130 752,-78 466,-78"/>
</g>
<g id="clust2" class="cluster">
<title>cluster_AppModule_declarations</title>
<polygon fill="none" stroke="black" points="16,-78 16,-130 458,-130 458,-78 16,-78"/>
</g>
<!-- AppComponent -->
<g id="node1" class="node">
<title>AppComponent</title>
<polygon fill="#ffffb3" stroke="black" points="449.94,-122 344.06,-122 344.06,-86 449.94,-86 449.94,-122"/>
<text text-anchor="middle" x="397" y="-99.8" font-family="Times,serif" font-size="14.00">AppComponent</text>
</g>
<!-- AppModule -->
<g id="node4" class="node">
<title>AppModule</title>
<polygon fill="#8dd3c7" stroke="black" points="438.66,-187 435.66,-191 414.66,-191 411.66,-187 355.34,-187 355.34,-151 438.66,-151 438.66,-187"/>
<text text-anchor="middle" x="397" y="-164.8" font-family="Times,serif" font-size="14.00">AppModule</text>
</g>
<!-- AppComponent&#45;&gt;AppModule -->
<g id="edge1" class="edge">
<title>AppComponent&#45;&gt;AppModule</title>
<path fill="none" stroke="black" d="M397,-122.11C397,-122.11 397,-140.99 397,-140.99"/>
<polygon fill="black" stroke="black" points="393.5,-140.99 397,-150.99 400.5,-140.99 393.5,-140.99"/>
</g>
<!-- LogsReaderComponent -->
<g id="node2" class="node">
<title>LogsReaderComponent</title>
<polygon fill="#ffffb3" stroke="black" points="326.47,-122 177.53,-122 177.53,-86 326.47,-86 326.47,-122"/>
<text text-anchor="middle" x="252" y="-99.8" font-family="Times,serif" font-size="14.00">LogsReaderComponent</text>
</g>
<!-- LogsReaderComponent&#45;&gt;AppModule -->
<g id="edge2" class="edge">
<title>LogsReaderComponent&#45;&gt;AppModule</title>
<path fill="none" stroke="black" d="M252,-122.02C252,-139.37 252,-163 252,-163 252,-163 345.06,-163 345.06,-163"/>
<polygon fill="black" stroke="black" points="345.06,-166.5 355.06,-163 345.06,-159.5 345.06,-166.5"/>
</g>
<!-- MessagesComponent -->
<g id="node3" class="node">
<title>MessagesComponent</title>
<polygon fill="#ffffb3" stroke="black" points="159.75,-122 24.25,-122 24.25,-86 159.75,-86 159.75,-122"/>
<text text-anchor="middle" x="92" y="-99.8" font-family="Times,serif" font-size="14.00">MessagesComponent</text>
</g>
<!-- MessagesComponent&#45;&gt;AppModule -->
<g id="edge3" class="edge">
<title>MessagesComponent&#45;&gt;AppModule</title>
<path fill="none" stroke="black" d="M92,-122.28C92,-143.32 92,-175 92,-175 92,-175 345.23,-175 345.23,-175"/>
<polygon fill="black" stroke="black" points="345.23,-178.5 355.23,-175 345.23,-171.5 345.23,-178.5"/>
</g>
<!-- AppComponent  -->
<g id="node7" class="node">
<title>AppComponent </title>
<polygon fill="#80b1d3" stroke="black" points="451.44,-252 342.56,-252 342.56,-216 451.44,-216 451.44,-252"/>
<text text-anchor="middle" x="397" y="-229.8" font-family="Times,serif" font-size="14.00">AppComponent </text>
</g>
<!-- AppModule&#45;&gt;AppComponent  -->
<g id="edge6" class="edge">
<title>AppModule&#45;&gt;AppComponent </title>
<path fill="none" stroke="black" stroke-dasharray="1,5" d="M397,-187.11C397,-187.11 397,-205.99 397,-205.99"/>
<polygon fill="black" stroke="black" points="393.5,-205.99 397,-215.99 400.5,-205.99 393.5,-205.99"/>
</g>
<!-- AppRoutingModule -->
<g id="node5" class="node">
<title>AppRoutingModule</title>
<polygon fill="#8dd3c7" stroke="black" points="744.27,-122 741.27,-126 720.27,-126 717.27,-122 615.73,-122 615.73,-86 744.27,-86 744.27,-122"/>
<text text-anchor="middle" x="680" y="-99.8" font-family="Times,serif" font-size="14.00">AppRoutingModule</text>
</g>
<!-- AppRoutingModule&#45;&gt;AppModule -->
<g id="edge4" class="edge">
<title>AppRoutingModule&#45;&gt;AppModule</title>
<path fill="none" stroke="black" d="M680,-122.28C680,-143.32 680,-175 680,-175 680,-175 448.76,-175 448.76,-175"/>
<polygon fill="black" stroke="black" points="448.76,-171.5 438.76,-175 448.76,-178.5 448.76,-171.5"/>
</g>
<!-- ConversionModule -->
<g id="node6" class="node">
<title>ConversionModule</title>
<polygon fill="#8dd3c7" stroke="black" points="598.1,-122 595.1,-126 574.1,-126 571.1,-122 473.9,-122 473.9,-86 598.1,-86 598.1,-122"/>
<text text-anchor="middle" x="536" y="-99.8" font-family="Times,serif" font-size="14.00">ConversionModule</text>
</g>
<!-- ConversionModule&#45;&gt;AppModule -->
<g id="edge5" class="edge">
<title>ConversionModule&#45;&gt;AppModule</title>
<path fill="none" stroke="black" d="M536,-122.02C536,-139.37 536,-163 536,-163 536,-163 448.7,-163 448.7,-163"/>
<polygon fill="black" stroke="black" points="448.7,-159.5 438.7,-163 448.7,-166.5 448.7,-159.5"/>
</g>
</g>
</svg>
