<?xml version="1.0" encoding="UTF-8" standalone="no"?>
<!DOCTYPE svg PUBLIC "-//W3C//DTD SVG 1.1//EN"
 "http://www.w3.org/Graphics/SVG/1.1/DTD/svg11.dtd">
<!-- Generated by graphviz version 2.47.0 (20210316.0004)
 -->
<!-- Title: dependencies Pages: 1 -->
<svg width="2178pt" height="211pt"
 viewBox="0.00 0.00 2178.00 211.00" xmlns="http://www.w3.org/2000/svg" xmlns:xlink="http://www.w3.org/1999/xlink">
<g id="graph0" class="graph" transform="scale(1 1) rotate(0) translate(4 207)">
<title>dependencies</title>
<polygon fill="white" stroke="transparent" points="-4,4 -4,-207 2174,-207 2174,4 -4,4"/>
<text text-anchor="start" x="1064.01" y="-42.4" font-family="Times-12" font-weight="bold" font-size="14.00">Legend</text>
<polygon fill="#ffffb3" stroke="transparent" points="851,-10 851,-30 871,-30 871,-10 851,-10"/>
<text text-anchor="start" x="874.63" y="-15.4" font-family="Times-12" font-size="14.00"> &#160;Declarations</text>
<polygon fill="#8dd3c7" stroke="transparent" points="964,-10 964,-30 984,-30 984,-10 964,-10"/>
<text text-anchor="start" x="987.73" y="-15.4" font-family="Times-12" font-size="14.00"> &#160;Module</text>
<polygon fill="#80b1d3" stroke="transparent" points="1050,-10 1050,-30 1070,-30 1070,-10 1050,-10"/>
<text text-anchor="start" x="1073.78" y="-15.4" font-family="Times-12" font-size="14.00"> &#160;Bootstrap</text>
<polygon fill="#fdb462" stroke="transparent" points="1147,-10 1147,-30 1167,-30 1167,-10 1147,-10"/>
<text text-anchor="start" x="1170.67" y="-15.4" font-family="Times-12" font-size="14.00"> &#160;Providers</text>
<polygon fill="#fb8072" stroke="transparent" points="1243,-10 1243,-30 1263,-30 1263,-10 1243,-10"/>
<text text-anchor="start" x="1266.73" y="-15.4" font-family="Times-12" font-size="14.00"> &#160;Exports</text>
<g id="clust1" class="cluster">
<title>cluster_ConversionModule</title>
<polygon fill="none" stroke="black" stroke-dasharray="1,5" points="8,-70 8,-195 2162,-195 2162,-70 8,-70"/>
</g>
<g id="clust2" class="cluster">
<title>cluster_ConversionModule_declarations</title>
<polygon fill="none" stroke="black" points="404,-78 404,-130 2154,-130 2154,-78 404,-78"/>
</g>
<g id="clust15" class="cluster">
<title>cluster_ConversionModule_providers</title>
<polygon fill="none" stroke="black" points="210,-78 210,-130 396,-130 396,-78 210,-78"/>
</g>
<g id="clust12" class="cluster">
<title>cluster_ConversionModule_imports</title>
<polygon fill="none" stroke="black" points="16,-78 16,-130 202,-130 202,-78 16,-78"/>
</g>
<!-- ConversionAddComponent -->
<g id="node1" class="node">
<title>ConversionAddComponent</title>
<polygon fill="#ffffb3" stroke="black" points="2145.99,-122 1976.01,-122 1976.01,-86 2145.99,-86 2145.99,-122"/>
<text text-anchor="middle" x="2061" y="-99.8" font-family="Times,serif" font-size="14.00">ConversionAddComponent</text>
</g>
<!-- ConversionModule -->
<g id="node10" class="node">
<title>ConversionModule</title>
<polygon fill="#8dd3c7" stroke="black" points="1158.1,-187 1155.1,-191 1134.1,-191 1131.1,-187 1033.9,-187 1033.9,-151 1158.1,-151 1158.1,-187"/>
<text text-anchor="middle" x="1096" y="-164.8" font-family="Times,serif" font-size="14.00">ConversionModule</text>
</g>
<!-- ConversionAddComponent&#45;&gt;ConversionModule -->
<g id="edge1" class="edge">
<title>ConversionAddComponent&#45;&gt;ConversionModule</title>
<path fill="none" stroke="black" d="M2061,-122.09C2061,-145.13 2061,-182 2061,-182 2061,-182 1168.2,-182 1168.2,-182"/>
<polygon fill="black" stroke="black" points="1168.2,-178.5 1158.2,-182 1168.2,-185.5 1168.2,-178.5"/>
</g>
<!-- ConversionAddFormComponent -->
<g id="node2" class="node">
<title>ConversionAddFormComponent</title>
<polygon fill="#ffffb3" stroke="black" points="1958.32,-122 1757.68,-122 1757.68,-86 1958.32,-86 1958.32,-122"/>
<text text-anchor="middle" x="1858" y="-99.8" font-family="Times,serif" font-size="14.00">ConversionAddFormComponent</text>
</g>
<!-- ConversionAddFormComponent&#45;&gt;ConversionModule -->
<g id="edge2" class="edge">
<title>ConversionAddFormComponent&#45;&gt;ConversionModule</title>
<path fill="none" stroke="black" d="M1858,-122.28C1858,-143.32 1858,-175 1858,-175 1858,-175 1168.36,-175 1168.36,-175"/>
<polygon fill="black" stroke="black" points="1168.36,-171.5 1158.36,-175 1168.36,-178.5 1168.36,-171.5"/>
</g>
<!-- ConversionAlertComponent -->
<g id="node3" class="node">
<title>ConversionAlertComponent</title>
<polygon fill="#ffffb3" stroke="black" points="1740.14,-122 1565.86,-122 1565.86,-86 1740.14,-86 1740.14,-122"/>
<text text-anchor="middle" x="1653" y="-99.8" font-family="Times,serif" font-size="14.00">ConversionAlertComponent</text>
</g>
<!-- ConversionAlertComponent&#45;&gt;ConversionModule -->
<g id="edge3" class="edge">
<title>ConversionAlertComponent&#45;&gt;ConversionModule</title>
<path fill="none" stroke="black" d="M1653,-122.11C1653,-141.34 1653,-169 1653,-169 1653,-169 1168.27,-169 1168.27,-169"/>
<polygon fill="black" stroke="black" points="1168.27,-165.5 1158.27,-169 1168.27,-172.5 1168.27,-165.5"/>
</g>
<!-- ConversionComponent -->
<g id="node4" class="node">
<title>ConversionComponent</title>
<polygon fill="#ffffb3" stroke="black" points="1547.88,-122 1402.12,-122 1402.12,-86 1547.88,-86 1547.88,-122"/>
<text text-anchor="middle" x="1475" y="-99.8" font-family="Times,serif" font-size="14.00">ConversionComponent</text>
</g>
<!-- ConversionComponent&#45;&gt;ConversionModule -->
<g id="edge4" class="edge">
<title>ConversionComponent&#45;&gt;ConversionModule</title>
<path fill="none" stroke="black" d="M1475,-122.02C1475,-139.37 1475,-163 1475,-163 1475,-163 1168.16,-163 1168.16,-163"/>
<polygon fill="black" stroke="black" points="1168.16,-159.5 1158.16,-163 1168.16,-166.5 1168.16,-159.5"/>
</g>
<!-- ConversionEditComponent -->
<g id="node5" class="node">
<title>ConversionEditComponent</title>
<polygon fill="#ffffb3" stroke="black" points="1383.71,-122 1214.29,-122 1214.29,-86 1383.71,-86 1383.71,-122"/>
<text text-anchor="middle" x="1299" y="-99.8" font-family="Times,serif" font-size="14.00">ConversionEditComponent</text>
</g>
<!-- ConversionEditComponent&#45;&gt;ConversionModule -->
<g id="edge5" class="edge">
<title>ConversionEditComponent&#45;&gt;ConversionModule</title>
<path fill="none" stroke="black" d="M1299,-122.24C1299,-137.57 1299,-157 1299,-157 1299,-157 1168.29,-157 1168.29,-157"/>
<polygon fill="black" stroke="black" points="1168.29,-153.5 1158.29,-157 1168.29,-160.5 1168.29,-153.5"/>
</g>
<!-- ConversionExchangeComponent -->
<g id="node6" class="node">
<title>ConversionExchangeComponent</title>
<polygon fill="#ffffb3" stroke="black" points="1196.58,-122 995.42,-122 995.42,-86 1196.58,-86 1196.58,-122"/>
<text text-anchor="middle" x="1096" y="-99.8" font-family="Times,serif" font-size="14.00">ConversionExchangeComponent</text>
</g>
<!-- ConversionExchangeComponent&#45;&gt;ConversionModule -->
<g id="edge6" class="edge">
<title>ConversionExchangeComponent&#45;&gt;ConversionModule</title>
<path fill="none" stroke="black" d="M1096,-122.11C1096,-122.11 1096,-140.99 1096,-140.99"/>
<polygon fill="black" stroke="black" points="1092.5,-140.99 1096,-150.99 1099.5,-140.99 1092.5,-140.99"/>
</g>
<!-- ConversionListComponent -->
<g id="node7" class="node">
<title>ConversionListComponent</title>
<polygon fill="#ffffb3" stroke="black" points="977.66,-122 810.34,-122 810.34,-86 977.66,-86 977.66,-122"/>
<text text-anchor="middle" x="894" y="-99.8" font-family="Times,serif" font-size="14.00">ConversionListComponent</text>
</g>
<!-- ConversionListComponent&#45;&gt;ConversionModule -->
<g id="edge7" class="edge">
<title>ConversionListComponent&#45;&gt;ConversionModule</title>
<path fill="none" stroke="black" d="M894,-122.24C894,-137.57 894,-157 894,-157 894,-157 1023.75,-157 1023.75,-157"/>
<polygon fill="black" stroke="black" points="1023.75,-160.5 1033.75,-157 1023.75,-153.5 1023.75,-160.5"/>
</g>
<!-- ConversionMenuComponent -->
<g id="node8" class="node">
<title>ConversionMenuComponent</title>
<polygon fill="#ffffb3" stroke="black" points="792.04,-122 613.96,-122 613.96,-86 792.04,-86 792.04,-122"/>
<text text-anchor="middle" x="703" y="-99.8" font-family="Times,serif" font-size="14.00">ConversionMenuComponent</text>
</g>
<!-- ConversionMenuComponent&#45;&gt;ConversionModule -->
<g id="edge8" class="edge">
<title>ConversionMenuComponent&#45;&gt;ConversionModule</title>
<path fill="none" stroke="black" d="M703,-122.02C703,-139.37 703,-163 703,-163 703,-163 1023.73,-163 1023.73,-163"/>
<polygon fill="black" stroke="black" points="1023.73,-166.5 1033.73,-163 1023.73,-159.5 1023.73,-166.5"/>
</g>
<!-- ConversionSearchComponent -->
<g id="node9" class="node">
<title>ConversionSearchComponent</title>
<polygon fill="#ffffb3" stroke="black" points="595.97,-122 412.03,-122 412.03,-86 595.97,-86 595.97,-122"/>
<text text-anchor="middle" x="504" y="-99.8" font-family="Times,serif" font-size="14.00">ConversionSearchComponent</text>
</g>
<!-- ConversionSearchComponent&#45;&gt;ConversionModule -->
<g id="edge9" class="edge">
<title>ConversionSearchComponent&#45;&gt;ConversionModule</title>
<path fill="none" stroke="black" d="M504,-122.11C504,-141.34 504,-169 504,-169 504,-169 1023.76,-169 1023.76,-169"/>
<polygon fill="black" stroke="black" points="1023.76,-172.5 1033.76,-169 1023.76,-165.5 1023.76,-172.5"/>
</g>
<!-- ConversionRoutingModule -->
<g id="node11" class="node">
<title>ConversionRoutingModule</title>
<polygon fill="#8dd3c7" stroke="black" points="193.71,-122 190.71,-126 169.71,-126 166.71,-122 24.29,-122 24.29,-86 193.71,-86 193.71,-122"/>
<text text-anchor="middle" x="109" y="-99.8" font-family="Times,serif" font-size="14.00">ConversionRoutingModule</text>
</g>
<!-- ConversionRoutingModule&#45;&gt;ConversionModule -->
<g id="edge10" class="edge">
<title>ConversionRoutingModule&#45;&gt;ConversionModule</title>
<path fill="none" stroke="black" d="M109,-122.09C109,-145.13 109,-182 109,-182 109,-182 1023.88,-182 1023.88,-182"/>
<polygon fill="black" stroke="black" points="1023.88,-185.5 1033.88,-182 1023.88,-178.5 1023.88,-185.5"/>
</g>
<!-- ConversionService -->
<g id="node12" class="node">
<title>ConversionService</title>
<ellipse fill="#fdb462" stroke="black" cx="303" cy="-104" rx="84.53" ry="18"/>
<text text-anchor="middle" x="303" y="-99.8" font-family="Times,serif" font-size="14.00">ConversionService</text>
</g>
<!-- ConversionService&#45;&gt;ConversionModule -->
<g id="edge11" class="edge">
<title>ConversionService&#45;&gt;ConversionModule</title>
<path fill="none" stroke="black" d="M303,-122.28C303,-143.32 303,-175 303,-175 303,-175 1023.77,-175 1023.77,-175"/>
<polygon fill="black" stroke="black" points="1023.77,-178.5 1033.77,-175 1023.77,-171.5 1023.77,-178.5"/>
</g>
</g>
</svg>
