<?xml version="1.0" encoding="UTF-8" standalone="no"?>
<!DOCTYPE svg PUBLIC "-//W3C//DTD SVG 1.1//EN"
 "http://www.w3.org/Graphics/SVG/1.1/DTD/svg11.dtd">
<!-- Generated by graphviz version 2.47.0 (20210316.0004)
 -->
<!-- Title: dependencies Pages: 1 -->
<svg width="2178pt" height="360pt"
 viewBox="0.00 0.00 2178.00 360.00" xmlns="http://www.w3.org/2000/svg" xmlns:xlink="http://www.w3.org/1999/xlink">
<g id="graph0" class="graph" transform="scale(1 1) rotate(0) translate(4 356)">
<title>dependencies</title>
<polygon fill="white" stroke="transparent" points="-4,4 -4,-356 2174,-356 2174,4 -4,4"/>
<text text-anchor="start" x="1064.01" y="-42.4" font-family="Times-12" font-weight="bold" font-size="14.00">Legend</text>
<polygon fill="#ffffb3" stroke="transparent" points="851,-10 851,-30 871,-30 871,-10 851,-10"/>
<text text-anchor="start" x="874.63" y="-15.4" font-family="Times-12" font-size="14.00"> &#160;Declarations</text>
<polygon fill="#8dd3c7" stroke="transparent" points="964,-10 964,-30 984,-30 984,-10 964,-10"/>
<text text-anchor="start" x="987.73" y="-15.4" font-family="Times-12" font-size="14.00"> &#160;Module</text>
<polygon fill="#80b1d3" stroke="transparent" points="1050,-10 1050,-30 1070,-30 1070,-10 1050,-10"/>
<text text-anchor="start" x="1073.78" y="-15.4" font-family="Times-12" font-size="14.00"> &#160;Bootstrap</text>
<polygon fill="#fdb462" stroke="transparent" points="1147,-10 1147,-30 1167,-30 1167,-10 1147,-10"/>
<text text-anchor="start" x="1170.67" y="-15.4" font-family="Times-12" font-size="14.00"> &#160;Providers</text>
<polygon fill="#fb8072" stroke="transparent" points="1243,-10 1243,-30 1263,-30 1263,-10 1243,-10"/>
<text text-anchor="start" x="1266.73" y="-15.4" font-family="Times-12" font-size="14.00"> &#160;Exports</text>
<g id="clust1" class="cluster">
<title>cluster_AppModule</title>
<polygon fill="none" stroke="black" stroke-dasharray="1,5" points="1018,-146 1018,-344 1770,-344 1770,-146 1018,-146"/>
</g>
<g id="clust2" class="cluster">
<title>cluster_AppModule_declarations</title>
<polygon fill="none" stroke="black" points="1320,-154 1320,-206 1762,-206 1762,-154 1320,-154"/>
</g>
<g id="clust6" class="cluster">
<title>cluster_AppModule_imports</title>
<polygon fill="none" stroke="black" points="1026,-154 1026,-206 1312,-206 1312,-154 1026,-154"/>
</g>
<g id="clust8" class="cluster">
<title>cluster_AppModule_bootstrap</title>
<polygon fill="none" stroke="black" points="1334,-284 1334,-336 1458,-336 1458,-284 1334,-284"/>
</g>
<g id="clust16" class="cluster">
<title>cluster_ConversionModule</title>
<polygon fill="none" stroke="black" stroke-dasharray="1,5" points="8,-70 8,-138 2162,-138 2162,-70 8,-70"/>
</g>
<g id="clust17" class="cluster">
<title>cluster_ConversionModule_declarations</title>
<polygon fill="none" stroke="black" points="404,-78 404,-130 2154,-130 2154,-78 404,-78"/>
</g>
<g id="clust27" class="cluster">
<title>cluster_ConversionModule_imports</title>
<polygon fill="none" stroke="black" points="210,-78 210,-130 396,-130 396,-78 210,-78"/>
</g>
<g id="clust30" class="cluster">
<title>cluster_ConversionModule_providers</title>
<polygon fill="none" stroke="black" points="16,-78 16,-130 202,-130 202,-78 16,-78"/>
</g>
<!-- AppComponent -->
<g id="node1" class="node">
<title>AppComponent</title>
<polygon fill="#ffffb3" stroke="black" points="1753.94,-198 1648.06,-198 1648.06,-162 1753.94,-162 1753.94,-198"/>
<text text-anchor="middle" x="1701" y="-175.8" font-family="Times,serif" font-size="14.00">AppComponent</text>
</g>
<!-- AppModule -->
<g id="node4" class="node">
<title>AppModule</title>
<polygon fill="#8dd3c7" stroke="black" points="1437.66,-263 1434.66,-267 1413.66,-267 1410.66,-263 1354.34,-263 1354.34,-227 1437.66,-227 1437.66,-263"/>
<text text-anchor="middle" x="1396" y="-240.8" font-family="Times,serif" font-size="14.00">AppModule</text>
</g>
<!-- AppComponent&#45;&gt;AppModule -->
<g id="edge1" class="edge">
<title>AppComponent&#45;&gt;AppModule</title>
<path fill="none" stroke="black" d="M1701,-198.28C1701,-219.32 1701,-251 1701,-251 1701,-251 1447.77,-251 1447.77,-251"/>
<polygon fill="black" stroke="black" points="1447.77,-247.5 1437.77,-251 1447.77,-254.5 1447.77,-247.5"/>
</g>
<!-- LogsReaderComponent -->
<g id="node2" class="node">
<title>LogsReaderComponent</title>
<polygon fill="#ffffb3" stroke="black" points="1630.47,-198 1481.53,-198 1481.53,-162 1630.47,-162 1630.47,-198"/>
<text text-anchor="middle" x="1556" y="-175.8" font-family="Times,serif" font-size="14.00">LogsReaderComponent</text>
</g>
<!-- LogsReaderComponent&#45;&gt;AppModule -->
<g id="edge2" class="edge">
<title>LogsReaderComponent&#45;&gt;AppModule</title>
<path fill="none" stroke="black" d="M1556,-198.02C1556,-215.37 1556,-239 1556,-239 1556,-239 1448.04,-239 1448.04,-239"/>
<polygon fill="black" stroke="black" points="1448.04,-235.5 1438.04,-239 1448.04,-242.5 1448.04,-235.5"/>
</g>
<!-- MessagesComponent -->
<g id="node3" class="node">
<title>MessagesComponent</title>
<polygon fill="#ffffb3" stroke="black" points="1463.75,-198 1328.25,-198 1328.25,-162 1463.75,-162 1463.75,-198"/>
<text text-anchor="middle" x="1396" y="-175.8" font-family="Times,serif" font-size="14.00">MessagesComponent</text>
</g>
<!-- MessagesComponent&#45;&gt;AppModule -->
<g id="edge3" class="edge">
<title>MessagesComponent&#45;&gt;AppModule</title>
<path fill="none" stroke="black" d="M1396,-198.11C1396,-198.11 1396,-216.99 1396,-216.99"/>
<polygon fill="black" stroke="black" points="1392.5,-216.99 1396,-226.99 1399.5,-216.99 1392.5,-216.99"/>
</g>
<!-- AppComponent  -->
<g id="node7" class="node">
<title>AppComponent </title>
<polygon fill="#80b1d3" stroke="black" points="1450.44,-328 1341.56,-328 1341.56,-292 1450.44,-292 1450.44,-328"/>
<text text-anchor="middle" x="1396" y="-305.8" font-family="Times,serif" font-size="14.00">AppComponent </text>
</g>
<!-- AppModule&#45;&gt;AppComponent  -->
<g id="edge6" class="edge">
<title>AppModule&#45;&gt;AppComponent </title>
<path fill="none" stroke="black" stroke-dasharray="1,5" d="M1396,-263.11C1396,-263.11 1396,-281.99 1396,-281.99"/>
<polygon fill="black" stroke="black" points="1392.5,-281.99 1396,-291.99 1399.5,-281.99 1392.5,-281.99"/>
</g>
<!-- AppRoutingModule -->
<g id="node5" class="node">
<title>AppRoutingModule</title>
<polygon fill="#8dd3c7" stroke="black" points="1304.27,-198 1301.27,-202 1280.27,-202 1277.27,-198 1175.73,-198 1175.73,-162 1304.27,-162 1304.27,-198"/>
<text text-anchor="middle" x="1240" y="-175.8" font-family="Times,serif" font-size="14.00">AppRoutingModule</text>
</g>
<!-- AppRoutingModule&#45;&gt;AppModule -->
<g id="edge4" class="edge">
<title>AppRoutingModule&#45;&gt;AppModule</title>
<path fill="none" stroke="black" d="M1240,-198.02C1240,-215.37 1240,-239 1240,-239 1240,-239 1344.19,-239 1344.19,-239"/>
<polygon fill="black" stroke="black" points="1344.19,-242.5 1354.19,-239 1344.19,-235.5 1344.19,-242.5"/>
</g>
<!-- ConversionModule -->
<g id="node6" class="node">
<title>ConversionModule</title>
<polygon fill="#8dd3c7" stroke="black" points="1158.1,-198 1155.1,-202 1134.1,-202 1131.1,-198 1033.9,-198 1033.9,-162 1158.1,-162 1158.1,-198"/>
<text text-anchor="middle" x="1096" y="-175.8" font-family="Times,serif" font-size="14.00">ConversionModule</text>
</g>
<!-- ConversionModule&#45;&gt;AppModule -->
<g id="edge5" class="edge">
<title>ConversionModule&#45;&gt;AppModule</title>
<path fill="none" stroke="black" d="M1096,-198.28C1096,-219.32 1096,-251 1096,-251 1096,-251 1344.29,-251 1344.29,-251"/>
<polygon fill="black" stroke="black" points="1344.29,-254.5 1354.29,-251 1344.29,-247.5 1344.29,-254.5"/>
</g>
<!-- ConversionAddComponent -->
<g id="node8" class="node">
<title>ConversionAddComponent</title>
<polygon fill="#ffffb3" stroke="black" points="2145.99,-122 1976.01,-122 1976.01,-86 2145.99,-86 2145.99,-122"/>
<text text-anchor="middle" x="2061" y="-99.8" font-family="Times,serif" font-size="14.00">ConversionAddComponent</text>
</g>
<!-- ConversionAddComponent&#45;&gt;ConversionModule -->
<g id="edge7" class="edge">
<title>ConversionAddComponent&#45;&gt;ConversionModule</title>
<path fill="none" stroke="black" d="M2061,-122.19C2061,-137.18 2061,-156 2061,-156 2061,-156 1140.32,-156 1140.32,-156 1140.32,-156 1140.32,-156.58 1140.32,-156.58"/>
<polygon fill="black" stroke="black" points="1136.82,-151.81 1140.32,-161.81 1143.82,-151.81 1136.82,-151.81"/>
</g>
<!-- ConversionAddFormComponent -->
<g id="node9" class="node">
<title>ConversionAddFormComponent</title>
<polygon fill="#ffffb3" stroke="black" points="1958.32,-122 1757.68,-122 1757.68,-86 1958.32,-86 1958.32,-122"/>
<text text-anchor="middle" x="1858" y="-99.8" font-family="Times,serif" font-size="14.00">ConversionAddFormComponent</text>
</g>
<!-- ConversionAddFormComponent&#45;&gt;ConversionModule -->
<g id="edge8" class="edge">
<title>ConversionAddFormComponent&#45;&gt;ConversionModule</title>
<path fill="none" stroke="black" d="M1858,-122.04C1858,-134.56 1858,-149 1858,-149 1858,-149 1122.59,-149 1122.59,-149 1122.59,-149 1122.59,-151.97 1122.59,-151.97"/>
<polygon fill="black" stroke="black" points="1119.09,-151.97 1122.59,-161.97 1126.09,-151.97 1119.09,-151.97"/>
</g>
<!-- ConversionAlertComponent -->
<g id="node10" class="node">
<title>ConversionAlertComponent</title>
<polygon fill="#ffffb3" stroke="black" points="1740.14,-122 1565.86,-122 1565.86,-86 1740.14,-86 1740.14,-122"/>
<text text-anchor="middle" x="1653" y="-99.8" font-family="Times,serif" font-size="14.00">ConversionAlertComponent</text>
</g>
<!-- ConversionAlertComponent&#45;&gt;ConversionModule -->
<g id="edge9" class="edge">
<title>ConversionAlertComponent&#45;&gt;ConversionModule</title>
<path fill="none" stroke="black" d="M1598.08,-122.11C1598.08,-131.9 1598.08,-142 1598.08,-142 1598.08,-142 1104.86,-142 1104.86,-142 1104.86,-142 1104.86,-151.89 1104.86,-151.89"/>
<polygon fill="black" stroke="black" points="1101.36,-151.89 1104.86,-161.89 1108.36,-151.89 1101.36,-151.89"/>
</g>
<!-- ConversionComponent -->
<g id="node11" class="node">
<title>ConversionComponent</title>
<polygon fill="#ffffb3" stroke="black" points="1547.88,-122 1402.12,-122 1402.12,-86 1547.88,-86 1547.88,-122"/>
<text text-anchor="middle" x="1475" y="-99.8" font-family="Times,serif" font-size="14.00">ConversionComponent</text>
</g>
<!-- ConversionComponent&#45;&gt;ConversionModule -->
<g id="edge10" class="edge">
<title>ConversionComponent&#45;&gt;ConversionModule</title>
<path fill="none" stroke="black" d="M1432.97,-122.24C1432.97,-129.43 1432.97,-136 1432.97,-136 1432.97,-136 1087.14,-136 1087.14,-136 1087.14,-136 1087.14,-151.85 1087.14,-151.85"/>
<polygon fill="black" stroke="black" points="1083.64,-151.85 1087.14,-161.85 1090.64,-151.85 1083.64,-151.85"/>
</g>
<!-- ConversionEditComponent -->
<g id="node12" class="node">
<title>ConversionEditComponent</title>
<polygon fill="#ffffb3" stroke="black" points="1383.71,-122 1214.29,-122 1214.29,-86 1383.71,-86 1383.71,-122"/>
<text text-anchor="middle" x="1299" y="-99.8" font-family="Times,serif" font-size="14.00">ConversionEditComponent</text>
</g>
<!-- ConversionEditComponent&#45;&gt;ConversionModule -->
<g id="edge11" class="edge">
<title>ConversionEditComponent&#45;&gt;ConversionModule</title>
<path fill="none" stroke="black" d="M1259.39,-122.17C1259.39,-126.05 1259.39,-129 1259.39,-129 1259.39,-129 1069.41,-129 1069.41,-129 1069.41,-129 1069.41,-151.88 1069.41,-151.88"/>
<polygon fill="black" stroke="black" points="1065.91,-151.88 1069.41,-161.88 1072.91,-151.88 1065.91,-151.88"/>
</g>
<!-- ConversionExchangeComponent -->
<g id="node13" class="node">
<title>ConversionExchangeComponent</title>
<polygon fill="#ffffb3" stroke="black" points="1196.58,-122 995.42,-122 995.42,-86 1196.58,-86 1196.58,-122"/>
<text text-anchor="middle" x="1096" y="-99.8" font-family="Times,serif" font-size="14.00">ConversionExchangeComponent</text>
</g>
<!-- ConversionExchangeComponent&#45;&gt;ConversionModule -->
<g id="edge12" class="edge">
<title>ConversionExchangeComponent&#45;&gt;ConversionModule</title>
<path fill="none" stroke="black" d="M1051.68,-122.01C1051.68,-122.01 1051.68,-151.85 1051.68,-151.85"/>
<polygon fill="black" stroke="black" points="1048.18,-151.85 1051.68,-161.85 1055.18,-151.85 1048.18,-151.85"/>
</g>
<!-- ConversionListComponent -->
<g id="node14" class="node">
<title>ConversionListComponent</title>
<polygon fill="#ffffb3" stroke="black" points="977.66,-122 810.34,-122 810.34,-86 977.66,-86 977.66,-122"/>
<text text-anchor="middle" x="894" y="-99.8" font-family="Times,serif" font-size="14.00">ConversionListComponent</text>
</g>
<!-- ConversionListComponent&#45;&gt;ConversionModule -->
<g id="edge13" class="edge">
<title>ConversionListComponent&#45;&gt;ConversionModule</title>
<path fill="none" stroke="black" d="M894,-122.17C894,-141.09 894,-168 894,-168 894,-168 1023.75,-168 1023.75,-168"/>
<polygon fill="black" stroke="black" points="1023.75,-171.5 1033.75,-168 1023.75,-164.5 1023.75,-171.5"/>
</g>
<!-- ConversionMenuComponent -->
<g id="node15" class="node">
<title>ConversionMenuComponent</title>
<polygon fill="#ffffb3" stroke="black" points="792.04,-122 613.96,-122 613.96,-86 792.04,-86 792.04,-122"/>
<text text-anchor="middle" x="703" y="-99.8" font-family="Times,serif" font-size="14.00">ConversionMenuComponent</text>
</g>
<!-- ConversionMenuComponent&#45;&gt;ConversionModule -->
<g id="edge14" class="edge">
<title>ConversionMenuComponent&#45;&gt;ConversionModule</title>
<path fill="none" stroke="black" d="M703,-122.03C703,-142.77 703,-174 703,-174 703,-174 1023.73,-174 1023.73,-174"/>
<polygon fill="black" stroke="black" points="1023.73,-177.5 1033.73,-174 1023.73,-170.5 1023.73,-177.5"/>
</g>
<!-- ConversionSearchComponent -->
<g id="node16" class="node">
<title>ConversionSearchComponent</title>
<polygon fill="#ffffb3" stroke="black" points="595.97,-122 412.03,-122 412.03,-86 595.97,-86 595.97,-122"/>
<text text-anchor="middle" x="504" y="-99.8" font-family="Times,serif" font-size="14.00">ConversionSearchComponent</text>
</g>
<!-- ConversionSearchComponent&#45;&gt;ConversionModule -->
<g id="edge15" class="edge">
<title>ConversionSearchComponent&#45;&gt;ConversionModule</title>
<path fill="none" stroke="black" d="M504,-122.01C504,-144.49 504,-180 504,-180 504,-180 1023.76,-180 1023.76,-180"/>
<polygon fill="black" stroke="black" points="1023.76,-183.5 1033.76,-180 1023.76,-176.5 1023.76,-183.5"/>
</g>
<!-- ConversionRoutingModule -->
<g id="node17" class="node">
<title>ConversionRoutingModule</title>
<polygon fill="#8dd3c7" stroke="black" points="387.71,-122 384.71,-126 363.71,-126 360.71,-122 218.29,-122 218.29,-86 387.71,-86 387.71,-122"/>
<text text-anchor="middle" x="303" y="-99.8" font-family="Times,serif" font-size="14.00">ConversionRoutingModule</text>
</g>
<!-- ConversionRoutingModule&#45;&gt;ConversionModule -->
<g id="edge16" class="edge">
<title>ConversionRoutingModule&#45;&gt;ConversionModule</title>
<path fill="none" stroke="black" d="M303,-122.2C303,-146.36 303,-186 303,-186 303,-186 1023.77,-186 1023.77,-186"/>
<polygon fill="black" stroke="black" points="1023.77,-189.5 1033.77,-186 1023.77,-182.5 1023.77,-189.5"/>
</g>
<!-- ConversionService -->
<g id="node18" class="node">
<title>ConversionService</title>
<ellipse fill="#fdb462" stroke="black" cx="109" cy="-104" rx="84.53" ry="18"/>
<text text-anchor="middle" x="109" y="-99.8" font-family="Times,serif" font-size="14.00">ConversionService</text>
</g>
<!-- ConversionService&#45;&gt;ConversionModule -->
<g id="edge17" class="edge">
<title>ConversionService&#45;&gt;ConversionModule</title>
<path fill="none" stroke="black" d="M109,-122.23C109,-148.01 109,-192 109,-192 109,-192 1023.88,-192 1023.88,-192"/>
<polygon fill="black" stroke="black" points="1023.88,-195.5 1033.88,-192 1023.88,-188.5 1023.88,-195.5"/>
</g>
</g>
</svg>
